<svg xmlns="http://www.w3.org/2000/svg" xmlns:xlink="http://www.w3.org/1999/xlink" version="1.1" x="0px" y="0px" viewBox="0 0 50 62.5" enable-background="new 0 0 50 50" xml:space="preserve"><g><path d="M21.9,29.8c-2.8,0-5.3,1.6-6.4,4.2c-0.3,0.6,0,1.4,0.6,1.6c0.6,0.3,1.4,0,1.6-0.6c0.7-1.6,2.3-2.7,4.1-2.7   c2.5,0,4.5,2,4.5,4.5c0,0.7,0.6,1.2,1.2,1.2c0.7,0,1.2-0.6,1.2-1.2C28.9,32.9,25.7,29.8,21.9,29.8z"/><path d="M9.4,44.1c1.8,0,3-0.4,3.8-0.8c0.7,0.7,1.6,1.2,2.6,1.2h11.8c0.7,0,1.2-0.6,1.2-1.2c0-0.7-0.6-1.2-1.2-1.2H15.8   c-0.4,0-0.9-0.4-1.3-1c0,0,0-0.1-0.1-0.1c-0.3-0.6-0.5-1.4-0.5-2.3c0-4.4,4.3-15.4,10.3-20.5c0.5,1.2,1.6,2.7,3.9,4.2   c2.3,1.5,4.4,1.9,5.8,1.9c0,0,0.1,0,0.1,0c-0.3,5.7-0.2,9.5,2.3,16.8c0.2,0.5,0.6,0.8,1.2,0.8H40c0.7,0,1.2-0.6,1.2-1.2   s-0.6-1.2-1.2-1.2h-1.6c-2.2-6.9-2.2-10.3-1.8-16.4l0.3-1.9c0.9,0,1.7-0.1,2.4-0.1c1.2,0,2.2-0.1,3.4-0.1c2.2,0,3.6-0.9,4.1-2.7   c0.2-0.9,0.4-1.4,0.4-1.6c0.2-0.4,0.5-1.1,0.5-2.2c0-2.4-1.9-2.8-2.7-3c-0.3-0.1-0.6-0.1-0.8-0.2c-1-0.2-1.5-0.3-2.2-1   c-0.2-0.2-0.4-0.4-0.6-0.6c-1.4-1.6-3.6-3.9-7.3-3.9c-5.3,0-7.5,3.6-8.1,5.8c-1,1.1-1.6,3-1.9,3.9c-7.7,5.3-12.5,18.2-12.5,23.4   c0,0.9,0.2,1.8,0.4,2.6c-0.5,0.2-1.2,0.4-2.5,0.4c-1.4,0-4.6-0.6-4.6-6.4c0-2.4,0.5-4.5,1.5-6.1c0.4-0.6,0.2-1.4-0.4-1.7   c-0.6-0.4-1.4-0.2-1.7,0.4c-1.2,2.1-1.8,4.6-1.8,7.4C2.3,41.8,6,44.1,9.4,44.1z M27.9,12.8c0.2-0.2,0.3-0.4,0.4-0.7   c0-0.2,0.7-4.1,5.7-4.1c2.6,0,4.2,1.7,5.5,3.1c0.2,0.2,0.4,0.5,0.6,0.7c1.3,1.3,2.4,1.5,3.6,1.8c0.2,0,0.5,0.1,0.8,0.2   c0.6,0.1,0.7,0.2,0.7,0.2c0,0,0,0.1,0,0.3c0,0.7-0.2,1.1-0.2,1.1c0,0,0,0,0,0c-0.1,0.1-0.1,0.2-0.2,0.4c0,0-0.1,0.2-0.5,1.8   c-0.1,0.5-0.3,0.8-1.7,0.8c-1.2,0-2.3,0-3.5,0.1c-1,0-2.1,0.1-3.4,0.1c-0.6,0-1.1,0.5-1.2,1l-0.3,2.1c-0.9,0.1-2.6-0.1-4.7-1.5   c-3.1-2-3.2-3.8-3.2-4C26.6,15,27.3,13.3,27.9,12.8z"/><path d="M33.1,44.5h2.7c0.7,0,1.2-0.6,1.2-1.2c0-0.7-0.6-1.2-1.2-1.2H34c-0.6-2-2.1-7.3-2.6-13.4c-0.1-0.7-0.7-1.2-1.3-1.1   c-0.7,0.1-1.2,0.7-1.1,1.3c0.6,8,2.9,14.5,3,14.8C32.1,44.2,32.5,44.5,33.1,44.5z"/><path d="M33.4,17.3c2.8,0,3.8-2,3.8-3.7c0-1.5-0.6-2.8-1.1-3.6c-0.4-0.6-1.1-0.8-1.7-0.4c-0.6,0.4-0.8,1.1-0.4,1.7   c0.3,0.5,0.7,1.3,0.7,2.2c0,0.9-0.4,1.2-1.3,1.2c-1.7,0-2-1.6-2.1-1.9c-0.1-0.7-0.7-1.2-1.4-1.1c-0.7,0.1-1.2,0.7-1.1,1.4   C29.1,14.7,30.3,17.3,33.4,17.3z"/></g><text x="0" y="65" fill="#000000" font-size="5px" font-weight="bold" font-family="'Helvetica Neue', Helvetica, Arial-Unicode, Arial, Sans-serif">Created by Focus Lab</text><text x="0" y="70" fill="#000000" font-size="5px" font-weight="bold" font-family="'Helvetica Neue', Helvetica, Arial-Unicode, Arial, Sans-serif">from the Noun Project</text></svg>